# xmcd
#
# Track frame offsets: 
#        150
#        19698
#        35126
#        49576
#        67551
#        83343
#        94737
#        109691
#        128240
#        147382
#        165517
#        184614
#        200314
#        219758
#        239358
#        261506
#
# Disc length: 3718 seconds
#
# Revision: 2
# Processed by: cddbd v1.5.2PL0 Copyright (c) Steve Scherf et al.
# Submitted via: ExactAudioCopy v1.1
#
DISCID=ce0e8410
DTITLE=陳美玲 - 環球百代經典無間系列～陳美玲
DYEAR=2005
DGENRE=Pop
TTITLE0=You're My Everything
TTITLE1=You Needed Me
TTITLE2=Longer
TTITLE3=夜車
TTITLE4=愛痕
TTITLE5=落日情
TTITLE6=我再不會痴
TTITLE7=聽吓唱吓一樂也
TTITLE8=如果
TTITLE9=欲斷難斷
TTITLE10=Crazy For You 
TTITLE11=說不完的故事（合唱：區瑞強）
TTITLE12=愛的漩渦
TTITLE13=目光的句子
TTITLE14=Will You Love Me Tomorrow
TTITLE15=約會（合唱：陳百強）
EXTD=
EXTT0=
EXTT1=
EXTT2=
EXTT3=
EXTT4=
EXTT5=
EXTT6=
EXTT7=
EXTT8=
EXTT9=
EXTT10=
EXTT11=
EXTT12=
EXTT13=
EXTT14=
EXTT15=
PLAYORDER=
